<svg width="45" height="41" viewBox="0 0 45 41" fill="none" xmlns="http://www.w3.org/2000/svg">
<path d="M45 21.9793H40.6356C40.615 23.4428 40.562 24.9051 40.4764 26.3663H37.5377C37.5548 26.1015 37.5804 25.8487 37.5958 25.5753C37.6643 24.4342 37.7088 23.2298 37.7293 21.9793H33.3871V19.0529H37.7311C37.7128 17.9027 37.6706 16.7524 37.6044 15.6021C37.5839 15.2776 37.5582 14.9786 37.5359 14.6643H40.4747L40.4832 14.7821C40.562 16.1385 40.6133 17.5684 40.6338 19.0529H44.9983L45 21.9793ZM36.1924 6.61463C36.1456 6.49377 36.0919 6.3757 36.0315 6.26101L35.9973 6.19097C35.921 6.04572 35.8323 5.90739 35.732 5.77755C35.2668 5.13624 34.6083 4.66033 33.8527 4.41943C29.4354 3.29228 24.8795 2.80045 20.3229 2.95881C15.762 2.79924 11.2017 3.29284 6.78115 4.42456C6.43298 4.53496 6.10307 4.69615 5.80215 4.90289L5.69603 4.98318C5.40195 5.20378 5.14188 5.46624 4.92412 5.76218C4.72864 6.00671 4.57429 6.28135 4.46714 6.57534C3.23858 11.1167 2.71163 15.8186 2.9045 20.5187C2.7091 25.2316 3.24134 29.9465 4.48254 34.4979L4.49623 34.5253C4.60393 34.8025 4.75342 35.0618 4.93953 35.294C5.14834 35.5721 5.39488 35.8199 5.67207 36.0303C5.88565 36.2062 6.12452 36.349 6.38065 36.454L6.51244 36.512C7.62666 36.9184 8.78104 37.2053 9.95607 37.3679C11.0378 37.5456 14.3924 37.947 16.1621 38.0393C17.5707 38.1145 21.0401 38.0393 22.5976 38.0393C23.5589 38.0548 24.5203 38.012 25.4764 37.9112C28.4061 37.8373 31.3124 37.3684 34.1163 36.5172L34.284 36.4471C34.5282 36.3439 34.7565 36.2064 34.9618 36.0388C35.2487 35.8236 35.5029 35.5681 35.7166 35.2803C35.8866 35.0641 36.026 34.8256 36.1308 34.5714L36.1821 34.4518C36.6107 33.2544 36.9091 32.0144 37.0721 30.7533H40.0964L40.0913 30.7994C39.9097 32.8348 39.4839 34.8411 38.823 36.7751C38.8048 36.8218 38.7854 36.8679 38.7648 36.9135C38.6451 37.212 38.4819 37.4912 38.2805 37.742C38.0307 38.0771 37.7345 38.3751 37.4007 38.6269C37.1616 38.8204 36.8966 38.9797 36.6134 39.1002L36.4132 39.1856C33.1419 40.1773 29.7516 40.7238 26.3339 40.8102C25.2186 40.9281 24.0972 40.9783 22.9758 40.9605C21.1616 40.9605 17.112 41.0494 15.469 40.9605C13.4031 40.8512 9.49053 40.3831 8.22912 40.1764C6.85734 39.989 5.50992 39.6539 4.21041 39.177L4.05979 39.1087C3.7596 38.9878 3.47968 38.8219 3.22969 38.6167C2.90617 38.3708 2.6192 38.0803 2.37734 37.754C2.1493 37.4744 1.96783 37.1601 1.83991 36.823C0.76335 34.2519 0 27.9243 0 20.5204C0 13.1524 0.756504 6.84867 1.82622 4.2486L1.87586 4.13073C1.99646 3.83429 2.15775 3.55602 2.35509 3.3039C2.63974 2.91547 2.98672 2.57665 3.38202 2.30111L3.41111 2.28403C3.75402 2.05121 4.12869 1.86883 4.52362 1.74249C9.68078 0.423301 15.0006 -0.151979 20.3212 0.0341603C25.6376 -0.151598 30.9533 0.422518 36.1068 1.73907C36.3952 1.82821 36.673 1.94851 36.9352 2.09782C37.0325 2.14995 37.1268 2.20756 37.2176 2.27036C37.2689 2.30453 37.3169 2.34211 37.3631 2.37627L37.3751 2.38482C37.7296 2.64871 38.0419 2.96496 38.301 3.32269C38.3376 3.36639 38.3719 3.41201 38.4037 3.45935C38.4819 3.56837 38.5517 3.68316 38.6125 3.80273L38.6519 3.88644C38.7215 4.02051 38.7833 4.15855 38.8367 4.29985C39.4826 6.20347 39.9008 8.1766 40.0827 10.1782L40.0913 10.2739H37.0704C36.9078 9.0268 36.6141 7.80029 36.1941 6.61463H36.1924ZM16.2015 27.5553H13.7916V16.6254L11.5461 19.0239L10.1495 17.5172L14.1031 13.4001H16.2015V27.5553ZM23.7888 25.6027C25.3121 25.6027 26.6077 24.8391 26.6077 23.6108C26.6077 22.145 24.6326 21.4873 23.7888 21.3797C22.9245 21.4873 20.9476 22.145 20.9476 23.6108C20.9476 24.8408 22.2244 25.6027 23.7888 25.6027ZM23.7888 19.2802C24.6326 19.1315 26.3835 18.6242 26.3835 17.2848C26.3835 16.0958 25.2487 15.3954 23.7905 15.3954C22.2878 15.3954 21.1753 16.0958 21.1753 17.2848C21.1753 18.6242 22.945 19.1298 23.7905 19.2802H23.7888ZM23.7888 27.8098C20.9699 27.8098 18.5189 26.4739 18.5189 23.9268C18.5819 23.0682 18.9143 22.2513 19.4689 21.592C20.0234 20.9327 20.772 20.4645 21.6083 20.2539C20.8263 20.092 20.1206 19.6748 19.6024 19.0682C19.0843 18.4617 18.7831 17.7002 18.7466 16.9039C18.7466 14.2936 21.3396 13.1883 23.7905 13.1883C26.1987 13.1883 28.8327 14.2936 28.8327 16.9056C28.7916 17.7032 28.4865 18.4647 27.9652 19.0706C27.4439 19.6766 26.7359 20.0927 25.9522 20.2539C26.7878 20.4649 27.5355 20.9334 28.0891 21.5927C28.6428 22.2521 28.9742 23.0688 29.0364 23.9268C29.0364 26.4551 26.5889 27.8115 23.7888 27.8115V27.8098Z" fill="#01753D"/>
</svg>
