<svg width="140" height="38" viewBox="0 0 140 38" fill="none" xmlns="http://www.w3.org/2000/svg">
<path fill-rule="evenodd" clip-rule="evenodd" d="M22.191 17.6579C22.154 13.4632 25.5689 11.4235 25.7253 11.3296C25.0486 10.346 24.1551 9.53637 23.1159 8.96519C22.0767 8.394 20.9206 8.07705 19.7395 8.03953C17.2219 7.76643 14.78 9.57149 13.4968 9.57149C12.1885 9.57149 10.2131 8.06513 8.08474 8.1078C6.70779 8.15316 5.36597 8.56035 4.19034 9.28958C3.01472 10.0188 2.04547 11.0452 1.37728 12.2684C-1.52274 17.372 0.639667 24.8781 3.41864 29.0046C4.80897 31.023 6.43341 33.2804 8.55967 33.2036C10.6397 33.114 11.4177 31.8509 13.9268 31.8509C16.4141 31.8509 17.1437 33.2036 19.312 33.1524C21.5446 33.114 22.9501 31.1212 24.2916 29.0814C25.2902 27.641 26.0587 26.0496 26.5688 24.3661C25.2713 23.8075 24.1643 22.8736 23.3859 21.6807C22.6074 20.4879 22.1919 19.0889 22.191 17.6579ZM18.0949 5.32129C19.3129 3.83601 19.9125 1.92703 19.7664 0C18.1474 0.0725435 16.122 1.13938 14.9561 2.53051C13.9243 3.75521 13.0026 5.76507 13.2409 7.65547C15.0603 7.79629 16.9273 6.72522 18.0949 5.32129ZM43.3965 15.5926L37.9125 32.9134H40.7427L42.2596 27.8226H47.7944L49.3869 32.9134H52.2941L46.7832 15.5926H43.3965ZM42.7408 25.689L44.1555 21.1656C44.5268 19.7275 44.7963 18.6409 44.9642 17.9055H45.0154C45.4357 19.6166 45.7221 20.7033 45.8745 21.1656L47.3144 25.689H42.7408ZM61.3177 20.1671C59.4643 20.1671 58.0826 20.9124 57.1728 22.4031H57.1215L56.9694 20.4231H54.5679C54.6343 21.827 54.6679 23.1968 54.6687 24.5325V38H57.3981V31.4199H57.4494C58.1572 32.6019 59.32 33.1936 60.9378 33.1951C61.645 33.2095 62.347 33.07 62.9966 32.7858C63.6461 32.5017 64.2282 32.0796 64.7036 31.5479C65.8331 30.3147 66.3977 28.6362 66.3974 26.5125C66.3974 24.6136 65.9127 23.0802 64.9432 21.9124C64.5103 21.3594 63.9582 20.9146 63.3295 20.612C62.7008 20.3094 62.0122 20.1572 61.3165 20.1671H61.3177ZM62.7577 29.8026C62.489 30.1917 62.1285 30.5061 61.7092 30.7171C61.2898 30.928 60.825 31.0288 60.3574 31.0102C59.9553 31.0239 59.5552 30.9467 59.1859 30.7844C58.8167 30.6221 58.4876 30.3785 58.2223 30.0714C57.6717 29.4378 57.3781 28.616 57.4006 27.7714V25.689C57.4095 25.4032 57.4519 25.1196 57.5267 24.844C57.674 24.1413 58.053 23.5106 58.601 23.056C59.1126 22.6154 59.7617 22.3735 60.4326 22.3733C60.8989 22.3618 61.3606 22.469 61.7756 22.6851C62.1906 22.9013 62.5457 23.2195 62.8085 23.6108C63.3782 24.5029 63.661 25.5526 63.6176 26.6149C63.6709 27.7433 63.3693 28.8597 62.7564 29.8026H62.7577ZM75.4472 20.1671C73.5923 20.1671 72.2106 20.9124 71.3022 22.4031H71.251L71.0988 20.4231H68.6985C68.7649 21.827 68.7987 23.1968 68.7998 24.5325V38H71.5288V31.4199H71.58C72.2867 32.6019 73.4495 33.1936 75.0685 33.1951C75.7755 33.2096 76.4774 33.07 77.1269 32.7859C77.7763 32.5018 78.3582 32.0796 78.8335 31.5479C79.9635 30.3147 80.5284 28.6362 80.5281 26.5125C80.5281 24.6136 80.0442 23.0802 79.0764 21.9124C78.6426 21.3593 78.09 20.9145 77.4606 20.612C76.8313 20.3095 76.1421 20.1573 75.4459 20.1671H75.4472ZM76.8858 29.8026C76.6172 30.1917 76.2566 30.5061 75.8373 30.7171C75.418 30.928 74.9532 31.0288 74.4855 31.0102C74.0831 31.0233 73.6828 30.946 73.3132 30.7837C72.9437 30.6214 72.6141 30.3781 72.3479 30.0714C71.7989 29.437 71.5063 28.6155 71.5288 27.7714V25.689C71.5383 25.4033 71.5806 25.1197 71.6549 24.844C71.8018 24.1414 72.1803 23.5108 72.7279 23.056C73.24 22.6154 73.8895 22.3735 74.5608 22.3733C75.0269 22.3616 75.4885 22.4688 75.9033 22.685C76.3181 22.9012 76.673 23.2195 76.9354 23.6108C77.5055 24.5028 77.7887 25.5525 77.7457 26.6149C77.7992 27.7432 77.4984 28.8596 76.8858 29.8026ZM92.0534 22.9451C91.1619 22.6371 90.3247 22.1862 89.5736 21.6094C89.324 21.4069 89.1236 21.1488 88.988 20.855C88.8523 20.5612 88.7851 20.2397 88.7915 19.9153C88.7877 19.6192 88.8466 19.3257 88.9643 19.0548C89.082 18.7839 89.2557 18.5418 89.4736 18.345C90.1105 17.8334 90.9107 17.5782 91.7213 17.6281C92.8566 17.6086 93.9783 17.8817 94.9815 18.4218L95.6641 16.1601C94.4595 15.5728 93.1329 15.2903 91.7974 15.3366C90.0602 15.3366 88.67 15.7917 87.6268 16.7021C87.1215 17.1266 86.7178 17.6623 86.4462 18.2684C86.1746 18.8746 86.0423 19.5355 86.0591 20.2013C86.0591 22.3818 87.5499 24.0375 90.5315 25.1683C91.3984 25.4435 92.199 25.9 92.8817 26.5082C93.1129 26.7393 93.295 27.016 93.4168 27.3214C93.5385 27.6267 93.5973 27.9541 93.5895 28.2834C93.6026 28.6448 93.5318 29.0042 93.3828 29.3326C93.2338 29.661 93.0107 29.9492 92.7317 30.1739C92.0358 30.6852 91.1867 30.9355 90.3293 30.8822C88.9387 30.8924 87.5727 30.5098 86.384 29.777L85.7536 32.0899C86.8662 32.8068 88.3373 33.1666 90.1666 33.1694C92.1521 33.1694 93.6988 32.6631 94.8067 31.6503C95.3026 31.1995 95.6951 30.6438 95.9565 30.0222C96.218 29.4007 96.3419 28.7284 96.3197 28.053C96.3551 26.9571 95.9862 25.8874 95.2854 25.0531C94.3826 24.1062 93.2758 23.3846 92.0521 22.9451H92.0534ZM102.337 17.3123L99.6569 18.1316V20.4188H97.8647V22.5013H99.6569V28.7955C99.6569 30.3744 99.9603 31.4967 100.567 32.1624C100.893 32.5039 101.288 32.7702 101.724 32.9432C102.16 33.1162 102.628 33.1919 103.095 33.1652C103.815 33.1894 104.533 33.0854 105.218 32.8579L105.142 30.7499C104.745 30.8477 104.338 30.8921 103.93 30.8822C102.867 30.8822 102.337 30.1113 102.337 28.5694V22.5055H105.346V20.4188H102.337V17.3123ZM113.002 20.1671C112.17 20.1283 111.341 20.274 110.571 20.5938C109.8 20.9137 109.108 21.4 108.542 22.0191C107.41 23.3292 106.817 25.0313 106.887 26.7728C106.828 28.4562 107.402 30.0993 108.492 31.3687C109.034 31.9758 109.701 32.4542 110.445 32.7698C111.19 33.0855 111.993 33.2307 112.799 33.1951C113.641 33.2309 114.48 33.0791 115.258 32.7503C116.035 32.4214 116.733 31.9236 117.3 31.2919C118.407 29.9791 118.985 28.2904 118.918 26.5637C118.988 24.8929 118.427 23.2581 117.349 21.9935C116.798 21.3875 116.123 20.9103 115.372 20.5949C114.622 20.2796 113.812 20.1336 113 20.1671H113.002ZM115.33 29.6404C115.102 30.1006 114.751 30.487 114.319 30.7561C113.886 31.0252 113.388 31.1665 112.88 31.1638C112.371 31.1717 111.87 31.0363 111.432 30.7726C110.995 30.509 110.638 30.1275 110.4 29.6703C109.891 28.7693 109.638 27.7428 109.668 26.7046C109.634 25.651 109.887 24.6083 110.4 23.6919C110.637 23.2293 110.997 22.8439 111.44 22.5797C111.883 22.3156 112.39 22.1834 112.903 22.1983C113.408 22.1884 113.906 22.3233 114.339 22.5875C114.773 22.8516 115.124 23.2344 115.353 23.6919C115.838 24.6068 116.089 25.6303 116.085 26.6693C116.081 27.7082 115.821 28.7296 115.329 29.6404H115.33ZM125.135 20.8371C124.503 21.3488 124.029 22.0348 123.77 22.8128H123.695L123.595 20.4231H121.218C121.286 21.6051 121.32 22.9167 121.32 24.3576L121.295 32.9134H124.022V26.3589C123.989 25.4843 124.227 24.6211 124.705 23.8924C124.954 23.5332 125.289 23.2437 125.678 23.0505C126.067 22.8573 126.497 22.7668 126.93 22.7872C127.218 22.7859 127.506 22.8116 127.79 22.864V20.2183C127.564 20.1824 127.336 20.1652 127.108 20.1671C126.396 20.1677 125.704 20.4028 125.135 20.8371ZM134.892 20.1458C134.071 20.1134 133.255 20.2777 132.509 20.6254C131.763 20.9731 131.108 21.4944 130.597 22.1471C129.556 23.4814 129.018 25.1487 129.079 26.8496C129.079 28.7656 129.623 30.2976 130.709 31.4327C131.794 32.5678 133.292 33.1439 135.196 33.1439C136.607 33.1781 138.01 32.9151 139.315 32.3715L138.888 30.4469C137.829 30.851 136.706 31.0507 135.575 31.0358C134.608 31.0795 133.657 30.7691 132.897 30.161C132.507 29.8076 132.198 29.3712 131.993 28.8829C131.788 28.3947 131.691 27.8666 131.709 27.3361H139.897C139.969 26.9207 140.003 26.4991 139.996 26.0772C140.043 24.6852 139.665 23.3125 138.913 22.1471C138.001 20.8115 136.66 20.1444 134.89 20.1458H134.892ZM131.708 25.3561C131.771 24.5732 132.051 23.8244 132.516 23.1968C132.758 22.8413 133.083 22.5522 133.462 22.3549C133.841 22.1576 134.262 22.0584 134.688 22.0661C135.12 22.0401 135.551 22.134 135.934 22.3378C136.317 22.5415 136.638 22.8474 136.863 23.2225C137.244 23.8646 137.429 24.6073 137.393 25.3561H131.706H131.708ZM41.1853 8.41079C40.8368 8.40997 40.49 8.35971 40.1552 8.26144C39.8691 8.17977 39.5906 8.07268 39.323 7.9414L38.9868 8.99115C39.323 9.18647 39.6878 9.32618 40.0673 9.40506C40.4551 9.4903 40.8508 9.53324 41.2475 9.5331C41.6237 9.53122 41.9985 9.48683 42.3651 9.40079C42.7252 9.31877 43.0678 9.1713 43.3763 8.96552C43.6758 8.76349 43.9261 8.49502 44.1084 8.18036C44.306 7.81801 44.4029 7.40796 44.3888 6.99405C44.3919 6.72556 44.339 6.45946 44.2337 6.21316C44.1348 5.98101 43.992 5.77079 43.8134 5.5944C43.6343 5.41435 43.4238 5.26965 43.1926 5.16768C42.952 5.06379 42.6996 4.99068 42.4412 4.95004V4.91162C42.8995 4.80597 43.3142 4.55847 43.6281 4.20327C43.9406 3.84045 44.1058 3.3707 44.0904 2.88895C44.102 2.59106 44.0452 2.29452 43.9246 2.02273C43.8039 1.75094 43.6227 1.51135 43.3952 1.32287C42.8482 0.911739 42.1767 0.707917 41.4972 0.746771C41.0576 0.737493 40.6193 0.799458 40.1989 0.930286C39.8545 1.0399 39.5234 1.18877 39.212 1.37407L39.5062 2.34699C39.7721 2.21881 40.0462 2.10905 40.3267 2.01843C40.623 1.91765 40.9333 1.86579 41.2458 1.86482C41.6277 1.8458 42.0045 1.96024 42.3134 2.18911C42.4444 2.29526 42.5488 2.43146 42.618 2.58648C42.6872 2.74151 42.7192 2.91096 42.7114 3.08098C42.714 3.27875 42.6673 3.47399 42.5756 3.64853C42.4811 3.819 42.3522 3.9673 42.1974 4.08377C42.0257 4.21255 41.832 4.30804 41.6262 4.36543C41.3948 4.4375 41.1537 4.47205 40.9117 4.46784H40.3523V5.50478H40.9083C41.1515 5.50726 41.3942 5.52867 41.6342 5.5688C41.866 5.60791 42.0901 5.68424 42.2982 5.79495C42.4941 5.90305 42.6608 6.05839 42.7837 6.24728C42.9439 6.5303 43.0035 6.86056 42.9527 7.18288C42.902 7.5052 42.7438 7.80006 42.5046 8.0182C42.1229 8.30185 41.6553 8.44075 41.1832 8.41079H41.1853ZM47.048 6.00404C46.754 6.17836 46.5128 6.43134 46.3508 6.73537C46.1887 7.03939 46.1121 7.38279 46.1292 7.72803C46.1265 7.97384 46.1727 8.21767 46.265 8.44493C46.3519 8.65988 46.4832 8.85339 46.65 9.01246C46.8178 9.17709 47.0163 9.30619 47.2337 9.39225C47.4705 9.48872 47.7238 9.53661 47.9789 9.5331C48.3192 9.55239 48.6589 9.48475 48.9668 9.33641C49.2747 9.18806 49.5411 8.96373 49.7416 8.6839H49.7765L49.8753 9.39225H51.0794C51.0122 8.90748 50.9831 8.41804 50.9924 7.92858V5.67121C50.9924 3.97711 50.203 3.13076 48.6241 3.13218C47.8988 3.10711 47.1813 3.29053 46.5541 3.66132L46.8269 4.55746C47.2951 4.2508 47.843 4.09328 48.4001 4.10513C49.2348 4.10513 49.6521 4.50624 49.6521 5.31702V5.42797C48.7475 5.37578 47.846 5.57494 47.0446 6.00404H47.048ZM49.6916 6.3369V7.28422C49.6931 7.45701 49.6554 7.62784 49.5815 7.78351C49.5095 7.93322 49.4104 8.06784 49.2894 8.18036C49.1689 8.29194 49.0293 8.38016 48.8775 8.44066C48.7203 8.50401 48.5524 8.53588 48.3832 8.53453C48.2581 8.54398 48.1324 8.52537 48.0152 8.47999C47.8979 8.43461 47.7919 8.36357 47.7047 8.27194C47.6175 8.18031 47.5512 8.07033 47.5106 7.94978C47.4699 7.82923 47.4559 7.70106 47.4695 7.57439C47.4592 7.3792 47.5058 7.18524 47.6034 7.01676C47.701 6.84828 47.8454 6.71275 48.0184 6.62707C48.5467 6.40339 49.118 6.30419 49.6895 6.3369H49.6916ZM54.9566 4.38249H57.4654V3.25592H53.6163V9.39225H54.9566V4.38249ZM59.3752 5.27863V11.8929H60.7167V8.66257H60.7424C60.9225 8.95279 61.1775 9.18737 61.4796 9.34084C61.7818 9.4943 62.1196 9.56081 62.4563 9.5331C62.8249 9.53716 63.1896 9.45721 63.5237 9.29917C63.8578 9.14112 64.1527 8.90898 64.3867 8.61988C64.6349 8.31507 64.8228 7.96441 64.9398 7.58721C65.0763 7.15573 65.1433 6.70471 65.1382 6.25155C65.1433 5.81984 65.0784 5.39023 64.9461 4.97992C64.8318 4.62107 64.653 4.28685 64.4187 3.99418C64.2037 3.7274 63.9348 3.51058 63.6302 3.35836C63.3237 3.20382 62.9856 3.12486 62.6433 3.12791C62.2374 3.1065 61.8334 3.19767 61.4746 3.39162C61.1158 3.58557 60.8158 3.87499 60.6066 4.22887H60.578L60.5028 3.25592H59.3239C59.339 3.61011 59.352 3.9515 59.3596 4.28435C59.3672 4.61719 59.3731 4.95005 59.3731 5.27863H59.3752ZM60.7167 5.84616C60.7168 5.41457 60.8793 4.99933 61.1711 4.68547C61.3071 4.54152 61.4692 4.42561 61.6485 4.3441C61.8245 4.26391 62.015 4.22175 62.2079 4.22033C62.4353 4.21633 62.6599 4.27064 62.8611 4.37822C63.0555 4.4815 63.225 4.62723 63.3574 4.80494C63.5012 5.00189 63.6065 5.22497 63.6676 5.46212C63.7405 5.73612 63.7761 6.01895 63.7735 6.30276C63.8002 6.85879 63.6513 7.40896 63.3486 7.87311C63.2159 8.06347 63.0384 8.21711 62.8323 8.31997C62.6261 8.42282 62.3979 8.47164 62.1684 8.46199C61.9661 8.46522 61.7655 8.42449 61.58 8.34252C61.405 8.26439 61.2483 8.14948 61.1202 8.00539C60.9899 7.85878 60.8891 7.68773 60.8235 7.50186C60.751 7.29953 60.715 7.0856 60.7172 6.87031L60.7167 5.84616ZM69.753 9.99395C70.164 9.19254 70.5186 8.36262 70.8143 7.5104L72.342 3.26019H70.913L69.8942 6.66549C69.8102 6.93859 69.7455 7.17329 69.6955 7.38239C69.6454 7.59148 69.6009 7.75788 69.5601 7.89444H69.5345C69.4676 7.64694 69.4063 7.42506 69.3475 7.2245C69.2886 7.02394 69.2323 6.84043 69.1734 6.67828L68.0303 3.26019H66.5529L68.7384 8.90153C68.7753 8.99464 68.8001 9.09216 68.8124 9.1917C68.7977 9.28978 68.7643 9.38401 68.7141 9.46908C68.5357 9.85707 68.2778 10.2019 67.9575 10.4804C67.6701 10.7336 67.3309 10.9187 66.9644 11.0224L67.2868 12.1702C67.8415 12.0621 68.3544 11.7956 68.7653 11.4021C69.1645 10.9881 69.4971 10.5129 69.7509 9.99395H69.753ZM75.5194 8.56015C75.232 8.56108 74.946 8.52085 74.6696 8.44066C74.4138 8.36903 74.1665 8.26884 73.9324 8.14195L73.5827 9.04236C73.8903 9.21528 74.2217 9.34042 74.5658 9.41361C74.929 9.49184 75.2991 9.53189 75.6703 9.5331C75.9868 9.53124 76.3024 9.49833 76.6126 9.43491C76.9218 9.37797 77.2209 9.27442 77.4999 9.12768C77.7633 8.98971 77.9911 8.79094 78.1652 8.54734C78.3467 8.28102 78.438 7.96201 78.4254 7.63841C78.4283 7.43394 78.3821 7.23181 78.2908 7.04953C78.1998 6.88094 78.0777 6.73174 77.9311 6.61001C77.7793 6.48546 77.6091 6.38609 77.4267 6.31557C77.2417 6.23931 77.0478 6.18766 76.8497 6.16193V6.12354C77.0093 6.08678 77.1649 6.03389 77.3141 5.96565C77.4648 5.89402 77.6046 5.80058 77.7289 5.68827C77.8512 5.57737 77.952 5.44422 78.0261 5.29569C78.1041 5.13836 78.1428 4.96397 78.1387 4.78788C78.1491 4.51129 78.0779 4.23784 77.934 4.00269C77.7995 3.79276 77.6188 3.61748 77.4061 3.49064C77.1775 3.35688 76.9282 3.2631 76.6689 3.21326C76.3966 3.15886 76.1198 3.13171 75.8422 3.13218C75.4943 3.13147 75.1473 3.16722 74.8066 3.23886C74.4432 3.31826 74.0933 3.452 73.7685 3.63572L74.1152 4.51904C74.3306 4.39678 74.5574 4.2967 74.7923 4.22033C75.0265 4.14344 75.2708 4.10317 75.5169 4.10086C75.8254 4.08294 76.1317 4.16351 76.3928 4.33128C76.4926 4.39599 76.5743 4.48578 76.6299 4.59194C76.6855 4.6981 76.7131 4.81703 76.7101 4.93723C76.7055 5.06417 76.6688 5.18777 76.6035 5.29613C76.5382 5.40449 76.4465 5.49398 76.3373 5.55598C76.0172 5.74179 75.6509 5.82926 75.2828 5.80777H74.6633V6.66549H75.2937C75.5096 6.665 75.7253 6.68068 75.9389 6.71242C76.1203 6.73614 76.2967 6.78946 76.4613 6.87031C76.5996 6.93708 76.7189 7.03839 76.8081 7.16475C76.8934 7.29777 76.9364 7.45417 76.9312 7.61281C76.9301 7.74707 76.8962 7.87896 76.8326 7.99664C76.7689 8.11432 76.6774 8.21412 76.5664 8.28704C76.2541 8.48862 75.8867 8.58426 75.5173 8.56015H75.5194ZM84.6566 7.22023V9.38798H85.9217V3.25592H84.1842L82.6943 6.15768C82.5371 6.47773 82.382 6.79349 82.2273 7.10073C82.0726 7.40798 81.9201 7.71949 81.7625 8.03953L81.7368 8.01393C81.7625 7.57867 81.7818 7.16048 81.7995 6.76363C81.8171 6.36677 81.8251 5.92724 81.8251 5.42797V3.25592H80.5466V9.39225H82.2836C82.564 8.86311 82.83 8.34252 83.0822 7.83899C83.3344 7.33545 83.5903 6.82762 83.848 6.32409C83.9871 6.02964 84.1279 5.74376 84.2682 5.46639C84.4272 5.14643 84.5675 4.81726 84.6885 4.48063H84.7516C84.726 4.94149 84.7041 5.40237 84.6835 5.8547C84.6629 6.30703 84.6545 6.76363 84.6545 7.22023H84.6566ZM89.8472 9.39225H91.1657V4.38249H93.0028V3.25592H88.0198V4.38249H89.8451V9.39225H89.8472ZM99.2967 8.18036C98.777 8.37941 98.2251 8.47783 97.6697 8.47053C97.1737 8.49433 96.6875 8.3249 96.3105 7.99687C96.1336 7.82306 95.9943 7.61381 95.9013 7.38241C95.8083 7.15101 95.7637 6.9025 95.7704 6.65268H99.7914C99.8095 6.55967 99.822 6.46562 99.8288 6.37105C99.8363 6.26436 99.8414 6.1534 99.8414 6.03392C99.8468 5.63004 99.7876 5.22796 99.6661 4.84336C99.5614 4.50453 99.3898 4.19089 99.1618 3.92162C98.9453 3.66554 98.6744 3.46274 98.3695 3.32849C98.0417 3.18533 97.6878 3.11408 97.331 3.11939C96.9376 3.11147 96.5474 3.19232 96.1885 3.35615C95.8297 3.51997 95.5112 3.76268 95.256 4.06671C95.002 4.37468 94.8064 4.72769 94.6789 5.10793C94.5412 5.52891 94.4728 5.97011 94.4767 6.41371C94.4707 6.8477 94.5391 7.27945 94.6789 7.68962C94.8069 8.05166 95.0072 8.38293 95.2673 8.66257C95.5335 8.93807 95.856 9.15075 96.2122 9.28557C96.6167 9.4378 97.0454 9.51303 97.4768 9.50747C98.1703 9.52321 98.8596 9.39392 99.5018 9.12768L99.2967 8.18036ZM96.2441 4.51904C96.367 4.37485 96.5194 4.25968 96.6908 4.18155C96.8621 4.10342 97.0482 4.06422 97.236 4.06671C97.4238 4.05561 97.6115 4.09052 97.7832 4.1685C97.955 4.24648 98.1058 4.36524 98.2228 4.51477C98.4629 4.85437 98.5829 5.26642 98.5633 5.684H95.7717C95.7957 5.25319 95.9613 4.843 96.242 4.51904H96.2441ZM108.032 9.41788C108.399 9.38524 108.76 9.3049 109.107 9.17889C109.434 9.06094 109.728 8.86483 109.965 8.60709C110.206 8.32518 110.33 7.95982 110.312 7.58721C110.322 7.39837 110.29 7.20967 110.219 7.03476C110.148 6.85985 110.04 6.70311 109.902 6.57587C109.598 6.31714 109.228 6.15141 108.835 6.09794L108.822 6.05952C108.979 6.02651 109.131 5.97346 109.275 5.90163C109.417 5.83179 109.547 5.73961 109.66 5.62852C109.773 5.51953 109.864 5.38906 109.928 5.24448C109.996 5.08729 110.03 4.91699 110.028 4.74522C110.043 4.43251 109.94 4.12569 109.74 3.8875C109.544 3.67467 109.302 3.51226 109.032 3.41381C108.746 3.30936 108.448 3.24198 108.145 3.21326C107.835 3.18339 107.556 3.1706 107.307 3.1706C106.917 3.1706 106.537 3.17912 106.165 3.20899C105.792 3.23886 105.487 3.26872 105.247 3.30713V9.39225C105.462 9.40932 105.727 9.42639 106.045 9.44346C106.364 9.46052 106.688 9.46908 107.021 9.46908C107.317 9.46908 107.655 9.45202 108.029 9.41788H108.032ZM106.537 4.18194C106.72 4.16487 106.862 4.15206 106.964 4.14352C107.067 4.13499 107.192 4.13073 107.332 4.13073C107.7 4.10584 108.068 4.17323 108.404 4.32701C108.514 4.38423 108.604 4.47228 108.665 4.58056C108.726 4.68884 108.755 4.81272 108.748 4.93723C108.752 5.07514 108.711 5.21057 108.63 5.32129C108.543 5.43398 108.429 5.52214 108.299 5.57732C108.142 5.64266 107.977 5.68851 107.809 5.71387C107.615 5.74364 107.418 5.75792 107.221 5.75656H106.539V4.18194H106.537ZM106.537 8.47053V6.63989H107.245C107.668 6.62353 108.09 6.69166 108.488 6.84043C108.631 6.89613 108.753 6.99708 108.836 7.12842C108.919 7.25976 108.958 7.41458 108.947 7.57015C108.954 7.74289 108.903 7.91285 108.802 8.05235C108.702 8.1781 108.572 8.27636 108.424 8.33825C108.258 8.41234 108.082 8.46121 107.902 8.48332C107.717 8.50858 107.531 8.52142 107.344 8.52174C107.193 8.52174 107.063 8.51746 106.951 8.50892C106.838 8.50039 106.7 8.4876 106.535 8.47053H106.537Z" fill="#222222"/>
</svg>
