<svg width="18" height="18" viewBox="0 0 18 18" fill="none" xmlns="http://www.w3.org/2000/svg">
<path d="M5.0625 5.625H12.9375M5.0625 9H9M5.49486 14.3096L8.50386 16.029C8.81129 16.2047 9.18871 16.2047 9.49614 16.029L12.5051 14.3096C12.7774 14.154 13.1069 14.1351 13.3952 14.2587L15.4811 15.1526C16.1409 15.4354 16.875 14.9514 16.875 14.2335V2.125C16.875 1.57272 16.4273 1.125 15.875 1.125H2.125C1.57272 1.125 1.125 1.57272 1.125 2.125V14.2335C1.125 14.9514 1.85905 15.4354 2.51892 15.1526L4.6048 14.2587C4.89305 14.1351 5.22256 14.154 5.49486 14.3096Z" stroke="#222222" stroke-width="2"/>
</svg>
