<svg width="140" height="36" viewBox="0 0 140 36" fill="none" xmlns="http://www.w3.org/2000/svg">
<path fill-rule="evenodd" clip-rule="evenodd" d="M40.2876 7.64581C39.9357 7.6471 39.5855 7.59694 39.2481 7.49691C38.9602 7.4148 38.6794 7.30952 38.4083 7.18209L38.069 8.22443C38.408 8.42046 38.776 8.56118 39.159 8.64136C39.5508 8.72423 39.95 8.76696 40.3504 8.76896C40.7302 8.76776 41.1085 8.72209 41.4777 8.63284C41.8411 8.55261 42.1869 8.40703 42.4986 8.20314C42.8008 8.00171 43.0534 7.73405 43.2374 7.42034C43.4362 7.05888 43.534 6.6502 43.5203 6.23759C43.5234 5.96853 43.47 5.70184 43.3637 5.45479C43.2627 5.224 43.1188 5.01464 42.9396 4.83789C42.7587 4.65968 42.5463 4.51685 42.3132 4.4167C42.0712 4.3098 41.8162 4.23541 41.5549 4.19546V4.15716C42.0177 4.05524 42.4368 3.80963 42.7526 3.45519C43.0923 3.03954 43.2579 2.50784 43.2144 1.97214C43.171 1.43643 42.9219 0.938565 42.5198 0.583443C41.9691 0.170198 41.2906 -0.0347353 40.604 0.00481871C40.1605 -0.00439995 39.7184 0.0573772 39.2943 0.187782C38.9466 0.298372 38.6125 0.448235 38.2985 0.634494L38.5954 1.60023C38.8646 1.47433 39.1412 1.36494 39.4237 1.27266C39.7233 1.17561 40.036 1.12537 40.3508 1.12374C40.7366 1.10267 41.1176 1.217 41.4285 1.44708C41.5607 1.55193 41.6662 1.68692 41.736 1.84082C41.8059 1.99472 41.8381 2.1631 41.8301 2.33201C41.8333 2.52925 41.7861 2.72403 41.6931 2.89786C41.5991 3.06998 41.4689 3.2195 41.3114 3.33606C41.1364 3.46122 40.9417 3.55615 40.7355 3.61686C40.5015 3.68665 40.2585 3.72106 40.0145 3.71897H39.45V4.75279H40.0145C40.2598 4.75313 40.5048 4.77449 40.7465 4.81662C40.981 4.8536 41.2077 4.92981 41.417 5.04209C41.6136 5.14956 41.7816 5.30274 41.9069 5.4888C42.0685 5.7717 42.1288 6.10159 42.0775 6.42359C42.0263 6.74559 41.8667 7.0403 41.6253 7.25867C41.2381 7.54027 40.7647 7.67668 40.2876 7.64412V7.64581ZM46.2036 5.2463C45.9076 5.42084 45.6648 5.67322 45.5014 5.97615C45.338 6.27908 45.2603 6.62106 45.2765 6.96511C45.2738 7.21155 45.3204 7.45605 45.4135 7.68411C45.5033 7.89726 45.6355 8.08978 45.802 8.24993C45.9736 8.41125 46.1733 8.53959 46.3911 8.62858C46.6309 8.7213 46.8861 8.76753 47.1431 8.76476C47.486 8.78381 47.8283 8.71673 48.1389 8.56964C48.4495 8.42255 48.7186 8.20008 48.9219 7.92236H48.9592L49.0584 8.62858H50.2756C50.2077 8.14527 50.1782 7.65732 50.1874 7.16931V4.91446C50.1874 3.2297 49.3909 2.38732 47.7979 2.38732C47.0658 2.36026 46.3412 2.54327 45.7091 2.91487L45.9844 3.80829C46.4565 3.50122 47.0093 3.34272 47.5719 3.35309C48.4142 3.35309 48.8353 3.75725 48.8353 4.56134V4.67622C47.9229 4.62232 47.0131 4.81882 46.2036 5.24461V5.2463ZM48.8714 5.58241V6.52689C48.8728 6.69779 48.8348 6.86673 48.7603 7.02042C48.6886 7.17153 48.5885 7.30733 48.4655 7.42034C48.3436 7.53008 48.2027 7.61657 48.0499 7.67559C47.8914 7.74009 47.7221 7.7733 47.5511 7.77344C47.3085 7.78135 47.072 7.69614 46.8899 7.53519C46.798 7.44079 46.7272 7.32785 46.6823 7.20388C46.6373 7.0799 46.6192 6.94774 46.6291 6.81619C46.6176 6.6214 46.6641 6.42759 46.7627 6.2594C46.8614 6.09122 47.0076 5.95628 47.1829 5.87171C47.716 5.64576 48.2938 5.54617 48.8714 5.5807V5.58241ZM56.7176 2.51069H52.8335V8.62858H54.186V3.62961H56.7176V2.51069ZM58.6448 4.52306V11.1174H59.9986V7.89683H60.0219C60.2037 8.18618 60.461 8.42006 60.7659 8.57307C61.0708 8.72607 61.4117 8.79238 61.7515 8.76476C62.1233 8.77085 62.4916 8.69245 62.829 8.53552C63.1663 8.37859 63.4639 8.14716 63.6995 7.85853C63.9482 7.55348 64.1376 7.20423 64.2576 6.82896C64.3949 6.3972 64.4624 5.94621 64.4578 5.49306C64.4624 5.06269 64.3969 4.63447 64.264 4.22525C64.1477 3.86789 63.9673 3.53484 63.7317 3.24247C63.5136 2.97769 63.2425 2.76174 62.9361 2.60856C62.408 2.36348 61.81 2.31626 61.2502 2.47548C60.6905 2.6347 60.2061 2.98982 59.8849 3.47646H59.8591L59.7827 2.51069H58.5952C58.6105 2.86381 58.6236 3.20418 58.6312 3.53603C58.6389 3.86787 58.6431 4.19376 58.6431 4.52135L58.6448 4.52306ZM59.9986 5.09314C59.9975 4.8726 60.0408 4.6541 60.1258 4.45072C60.204 4.2588 60.3165 4.08289 60.4579 3.93169C60.5953 3.78946 60.759 3.6753 60.9397 3.59557C61.1164 3.51235 61.3091 3.4688 61.5042 3.46794C61.7336 3.46396 61.9603 3.5181 62.1633 3.62535C62.3597 3.72991 62.5308 3.87663 62.6642 4.05506C62.8093 4.24978 62.9154 4.47083 62.9768 4.706C63.0504 4.97917 63.0865 5.26114 63.0841 5.54411C63.1116 6.09987 62.9613 6.64991 62.6553 7.114C62.5205 7.30254 62.341 7.45451 62.1332 7.55625C61.9253 7.65799 61.6955 7.7063 61.4644 7.69686C61.2602 7.70008 61.0578 7.65948 60.8706 7.57775C60.6941 7.50151 60.536 7.38836 60.4066 7.24589C60.2751 7.09814 60.1734 6.9262 60.1072 6.73961C60.0333 6.53809 59.9969 6.32467 59.9999 6.10996V5.09314H59.9986ZM68.1701 8.42864C68.1547 8.52626 68.121 8.62009 68.0709 8.70519C67.8896 9.08998 67.6295 9.4321 67.3075 9.70923C67.0196 9.96472 66.6765 10.1497 66.3053 10.2496L66.6306 11.3982C67.1907 11.2887 67.7082 11.0216 68.1226 10.6282C68.5261 10.2155 68.8623 9.74173 69.1189 9.22422C69.5329 8.42641 69.8906 7.60044 70.1894 6.75239L71.7315 2.51069H70.2895L69.261 5.90999C69.1787 6.17802 69.1112 6.41629 69.0608 6.6205C69.0103 6.82471 68.9654 6.99487 68.9242 7.13101H68.8983C68.8309 6.88851 68.7711 6.6673 68.7096 6.46309C68.6481 6.25887 68.5934 6.08443 68.534 5.92276L67.3804 2.51069H65.8896L68.0951 8.13931C68.1322 8.23146 68.1569 8.3282 68.1684 8.42692L68.1701 8.42864ZM74.9361 7.79473C74.6461 7.79565 74.3574 7.75554 74.0786 7.67559C73.8198 7.60735 73.57 7.50882 73.3342 7.38204L72.9818 8.27548C73.2921 8.44789 73.6265 8.57265 73.9738 8.64562C74.3399 8.7257 74.7137 8.76565 75.0884 8.76476C75.4076 8.76436 75.726 8.73297 76.0393 8.67112C76.3515 8.6129 76.6532 8.50823 76.9346 8.36055C77.2021 8.22557 77.4326 8.02692 77.6059 7.78195C77.7891 7.51643 77.8812 7.19838 77.8685 6.87576C77.872 6.6732 77.8254 6.47294 77.7328 6.2929C77.6419 6.12413 77.5185 5.97516 77.3697 5.85468C77.2157 5.73071 77.0442 5.63037 76.8608 5.55689C76.6741 5.48091 76.4783 5.42941 76.2785 5.40371V5.36969C76.4389 5.33141 76.5952 5.27726 76.745 5.20802C76.8988 5.13973 77.0403 5.04627 77.1636 4.93147C77.2869 4.82244 77.3886 4.69112 77.4634 4.54433C77.5415 4.38571 77.5805 4.21064 77.5771 4.03379C77.5865 3.75809 77.5145 3.48574 77.3702 3.25096C77.2346 3.04284 77.0523 2.86946 76.8379 2.74468C76.6088 2.60772 76.3567 2.51401 76.094 2.46816C75.8193 2.41258 75.5399 2.38407 75.2597 2.38306C74.9085 2.38378 74.5583 2.42086 74.2147 2.49368C73.8473 2.57085 73.494 2.7043 73.1671 2.88934L73.517 3.76576C73.7352 3.64695 73.964 3.54868 74.2003 3.4722C74.4361 3.39346 74.683 3.35326 74.9315 3.35309C75.242 3.33598 75.5503 3.41466 75.8149 3.57856C75.915 3.64371 75.997 3.73335 76.0531 3.83904C76.1092 3.94472 76.1376 4.06297 76.1355 4.18268C76.1314 4.30937 76.0945 4.43283 76.0286 4.54095C75.9627 4.64908 75.8699 4.73819 75.7593 4.79958C75.4371 4.98679 75.0668 5.07415 74.6952 5.05061H74.0701V5.90999H74.7063C74.924 5.90821 75.1416 5.92245 75.3573 5.95255C75.5403 5.9762 75.7183 6.02935 75.8845 6.10996C76.0242 6.17807 76.1446 6.28051 76.2343 6.40778C76.3215 6.53989 76.365 6.69618 76.3586 6.85449C76.3575 6.98835 76.3233 7.11984 76.2591 7.23717C76.1948 7.35449 76.1025 7.45399 75.9905 7.5267C75.6745 7.72308 75.3054 7.81614 74.9344 7.79302L74.9361 7.79473ZM82.5703 7.07996C82.8248 6.57368 83.083 6.07166 83.3426 5.56538C83.4834 5.27182 83.6255 4.9868 83.7667 4.71026C83.9277 4.39154 84.0694 4.06333 84.1908 3.72746H84.2545C84.2286 4.19119 84.2066 4.64643 84.1858 5.10166C84.165 5.55689 84.1535 6.00786 84.1535 6.45883V8.62433H85.4322V2.50643H83.6794L82.1759 5.40371C82.0172 5.72279 81.8607 6.03337 81.7047 6.33969C81.5486 6.64601 81.3946 6.96085 81.2356 7.27993L81.2097 7.25441C81.2356 6.82045 81.2547 6.40352 81.2729 6.00786C81.2911 5.6122 81.2988 5.16973 81.2988 4.67622V2.51069H80.0082V8.62433H81.7611C82.0452 8.09564 82.3148 7.5803 82.5699 7.07827L82.5703 7.07996ZM89.3931 8.62858H90.7236V3.62961H92.5774V2.51069H87.5507V3.62961H89.3927L89.3931 8.62858ZM94.8677 7.89683C95.1371 8.17144 95.4622 8.38471 95.8211 8.52222C96.2296 8.67251 96.6622 8.74607 97.0973 8.7392C97.7968 8.75614 98.4923 8.62871 99.1407 8.36481L98.9286 7.42034C98.4036 7.61669 97.8471 7.71474 97.2868 7.70964C96.7866 7.73135 96.2967 7.56265 95.9152 7.23737C95.7366 7.06417 95.5959 6.85558 95.502 6.62486C95.4081 6.39414 95.3631 6.14635 95.3698 5.89724H99.4299C99.4483 5.8031 99.4608 5.70791 99.4672 5.6122C99.4753 5.50584 99.4804 5.39521 99.4804 5.28034C99.4859 4.87625 99.4261 4.47394 99.3031 4.0891C99.1966 3.75163 99.0236 3.43909 98.7942 3.17013C98.5745 2.91597 98.3013 2.714 97.9943 2.57878C97.6627 2.43944 97.3061 2.36992 96.9467 2.37455C96.537 2.36731 96.1311 2.45314 95.7592 2.62557C95.4097 2.78783 95.0997 3.02447 94.8507 3.31905C94.5927 3.62489 94.3951 3.97718 94.2684 4.35713C94.1285 4.77667 94.0594 5.21666 94.0639 5.65899C94.0583 6.09168 94.1274 6.52208 94.2684 6.93107C94.3992 7.29057 94.6032 7.61886 94.8672 7.89512L94.8677 7.89683ZM95.8478 3.77002C95.9717 3.62572 96.1255 3.51023 96.2984 3.43161C96.4714 3.353 96.6593 3.31314 96.8491 3.31479C97.039 3.3045 97.2286 3.3401 97.4018 3.41858C97.5751 3.49706 97.7271 3.61611 97.845 3.76576C98.0873 4.10273 98.2084 4.51221 98.1885 4.92721H95.3715C95.396 4.49829 95.5636 4.0901 95.8474 3.7683L95.8478 3.77002ZM108.828 8.4116C109.158 8.29555 109.455 8.10147 109.694 7.84578C109.938 7.56348 110.063 7.1976 110.044 6.8247C110.053 6.63712 110.021 6.44977 109.95 6.27615C109.878 6.10253 109.769 5.94698 109.631 5.82066C109.324 5.56136 108.951 5.39465 108.554 5.33991L108.54 5.30161C108.699 5.27064 108.853 5.21766 108.998 5.14419C109.141 5.07596 109.272 4.9855 109.387 4.87616C109.499 4.76588 109.59 4.63618 109.657 4.49328C109.726 4.33656 109.76 4.16674 109.757 3.99549C109.774 3.68351 109.67 3.3771 109.467 3.14037C109.271 2.92682 109.025 2.76466 108.753 2.6681C108.465 2.55997 108.163 2.49268 107.857 2.46816C107.545 2.43838 107.263 2.42137 107.012 2.42137C106.618 2.42137 106.235 2.43411 105.859 2.45964C105.548 2.47784 105.239 2.51192 104.932 2.56174V8.62858C105.15 8.6456 105.417 8.65836 105.738 8.67538C106.059 8.69239 106.387 8.70519 106.723 8.70519C107.022 8.70519 107.364 8.68392 107.741 8.65414C108.112 8.62191 108.478 8.53973 108.828 8.40989L108.828 8.4116ZM106.235 3.42967C106.419 3.41265 106.563 3.39988 106.666 3.39562C106.789 3.38437 106.913 3.38009 107.037 3.38285C107.408 3.35916 107.779 3.42481 108.119 3.5743C108.229 3.63268 108.32 3.72136 108.382 3.8299C108.443 3.93844 108.472 4.06232 108.466 4.18694C108.469 4.32425 108.427 4.45885 108.347 4.56985C108.259 4.68091 108.144 4.76735 108.013 4.82085C107.856 4.88984 107.689 4.93569 107.519 4.957C107.322 4.98814 107.124 5.00378 106.925 5.00379H106.237V3.42967H106.235ZM107.05 7.75643C106.918 7.75922 106.785 7.75494 106.653 7.74365C106.542 7.73514 106.402 7.72665 106.235 7.70964V5.88446H106.949C107.376 5.866 107.803 5.93402 108.203 6.08443C108.348 6.13937 108.47 6.23926 108.554 6.36945C108.637 6.49964 108.677 6.65325 108.667 6.8077C108.675 6.98004 108.623 7.14992 108.521 7.28845C108.419 7.41503 108.288 7.51442 108.139 7.57775C107.972 7.65161 107.794 7.70033 107.612 7.72239C107.426 7.74562 107.238 7.75642 107.05 7.75471L107.05 7.75643ZM15.5058 17.2694L11.6302 13.4106L0 1.82573V32.713L12.0815 20.6814L15.5058 17.2694ZM16.0292 16.7503L19.8318 12.9596L1.62522 2.40007L12.1913 12.9256L16.0292 16.7503ZM16.5525 17.2694L20.4939 21.1945L27.262 17.2677L20.4939 13.3408L16.5525 17.2694ZM16.0292 17.7927L11.2769 22.5236L1.62607 32.1344L19.8314 21.5791L16.0292 17.7927ZM112.206 19.6051C111.592 19.5933 110.984 19.7198 110.425 19.9752C109.875 20.2466 109.406 20.6572 109.063 21.1664H108.99L108.778 19.788H107.544V34.368H109.06V30.2284C109.058 29.6693 109.022 29.1109 108.951 28.5564H109.06C109.406 29.0428 109.874 29.4276 110.418 29.671C110.981 29.9179 111.59 30.0412 112.204 30.0327C112.785 30.0611 113.365 29.9518 113.896 29.7138C114.427 29.4759 114.895 29.1158 115.262 28.6627C115.995 27.748 116.363 26.4646 116.365 24.8125C116.365 23.1675 116.004 21.8883 115.281 20.975C114.913 20.519 114.442 20.157 113.908 19.9185C113.373 19.6801 112.79 19.5721 112.206 19.6034L112.206 19.6051ZM114.058 27.7055C113.836 28.0403 113.533 28.3127 113.176 28.4967C112.82 28.6806 112.423 28.77 112.022 28.7564C110.987 28.7564 110.234 28.4529 109.765 27.8459C109.296 27.239 109.061 26.2278 109.061 24.8125V24.4721C109.074 23.2298 109.308 22.3236 109.765 21.7535C110.222 21.1877 110.962 20.9041 111.986 20.9026C112.387 20.8843 112.786 20.9665 113.148 21.1418C113.509 21.3171 113.822 21.5799 114.057 21.9067C114.546 22.5746 114.792 23.5404 114.792 24.7955C114.848 25.8173 114.592 26.832 114.057 27.7038L114.058 27.7055ZM118.36 29.8498H119.877V15.5676H118.36L118.36 29.8498ZM126.206 19.6263C125.609 19.627 125.015 19.7043 124.438 19.8561C123.874 19.9992 123.329 20.2107 122.815 20.4857L123.282 21.6557C124.156 21.1874 125.125 20.9228 126.115 20.8814C126.41 20.8543 126.707 20.8907 126.987 20.9883C127.267 21.0859 127.523 21.2424 127.737 21.4472C128.116 21.9472 128.297 22.5699 128.246 23.1958V23.8212L126.546 23.8765C123.311 23.9743 121.694 25.0394 121.694 27.0716C121.668 27.4764 121.731 27.8818 121.877 28.26C122.023 28.6383 122.249 28.9803 122.539 29.2626C123.191 29.8078 124.026 30.0832 124.874 30.0327C125.51 30.0527 126.143 29.9397 126.734 29.7009C127.325 29.3971 127.836 28.9585 128.228 28.4203H128.301L128.603 29.8498H129.727V22.9814C129.727 21.8071 129.439 20.9563 128.863 20.4202C128.288 19.8842 127.398 19.6246 126.204 19.6246L126.206 19.6263ZM128.208 25.8123C128.231 26.2131 128.171 26.6145 128.032 26.9909C127.893 27.3673 127.677 27.7106 127.399 27.9991C126.789 28.5441 125.989 28.8241 125.174 28.7776C124.672 28.8088 124.176 28.6544 123.78 28.3437C123.609 28.1852 123.475 27.9902 123.389 27.773C123.302 27.5558 123.266 27.3219 123.282 27.0886C123.262 26.7808 123.326 26.4735 123.467 26.1993C123.608 25.9251 123.82 25.6943 124.081 25.5315C124.615 25.1996 125.485 25.011 126.69 24.9657L128.208 24.9018V25.8123ZM135.892 26.761C135.639 27.5183 135.473 28.0501 135.394 28.365H135.321C135.087 27.3998 134.787 26.4517 134.425 25.5272L132.231 19.788H130.605L134.644 29.9093L134.087 31.3388C133.642 32.513 132.898 33.1002 131.857 33.1002C131.479 33.1045 131.103 33.0688 130.733 32.9938V34.2106C131.182 34.316 131.642 34.3689 132.104 34.368C132.865 34.3902 133.609 34.1381 134.201 33.6575C134.893 32.9918 135.406 32.1623 135.695 31.2452L140 19.788H138.373C136.97 23.6797 136.142 26.0034 135.889 26.7593L135.892 26.761ZM86.7415 19.965H82.4282C81.0809 19.8946 79.7523 20.3045 78.6773 21.1222C78.267 21.4699 77.9353 21.9013 77.7042 22.3877C77.4731 22.8741 77.3479 23.4042 77.3371 23.9429C77.3392 24.392 77.4319 24.8361 77.6098 25.2482C77.7876 25.6604 78.0469 26.0322 78.3719 26.3411C78.6969 26.65 79.0809 26.8897 79.5008 27.0457C79.9206 27.2016 80.3677 27.2706 80.8149 27.2486C81.0244 27.2486 81.2547 27.2273 81.4858 27.206C81.3549 27.4603 81.2832 27.7411 81.2763 28.0272C81.305 28.5646 81.5285 29.073 81.9048 29.4567C80.9629 29.5205 79.2015 29.6225 77.9037 30.4224C77.4338 30.6711 77.0375 31.0395 76.7545 31.4906C76.4716 31.9416 76.3121 32.4595 76.292 32.9921C76.292 34.5492 77.7578 36 80.7962 36C84.3987 36 86.3051 34.0046 86.3051 32.0263C86.3051 30.5713 85.4683 29.8566 84.5463 29.078L83.7918 28.4909C83.6356 28.3942 83.5047 28.2615 83.4098 28.1039C83.315 27.9463 83.2589 27.7684 83.2463 27.5847C83.2681 27.3812 83.3314 27.1843 83.4324 27.0064C83.5334 26.8285 83.6699 26.6734 83.8333 26.5508C84.7134 25.8574 85.593 25.1213 85.593 23.5642C85.5851 23.0066 85.4464 22.4588 85.188 21.965C84.9297 21.4712 84.559 21.0455 84.106 20.7223H85.4043L86.7415 19.965ZM84.8991 32.8432C84.8991 34.1493 83.8299 35.1193 81.8196 35.1193C79.5781 35.1193 78.1297 34.0429 78.1297 32.5496C78.1297 31.0563 79.4708 30.55 79.9314 30.3841C80.6468 30.1742 81.3866 30.0598 82.1318 30.0438C82.2925 30.0384 82.4534 30.0469 82.6127 30.0693C84.2086 31.2052 84.9004 31.7711 84.9004 32.8432H84.8991ZM83.223 26.0701C82.8369 26.4358 82.3293 26.645 81.7984 26.6572C79.9959 26.6572 79.1786 24.3215 79.1786 22.9133C79.1499 22.3566 79.3128 21.8068 79.64 21.3562C79.8208 21.1421 80.0453 20.9694 80.2983 20.8498C80.5513 20.7301 80.827 20.6663 81.1067 20.6627C82.8455 20.6627 83.7451 23.0154 83.7451 24.53C83.7809 25.0922 83.5937 25.6458 83.2243 26.0701H83.223ZM71.2289 19.6672C68.048 19.6672 65.8108 22.0199 65.8108 24.7725C65.8099 25.4374 65.9426 26.0957 66.2008 26.7081C66.459 27.3205 66.8375 27.8745 67.3137 28.337C67.7899 28.7995 68.3541 29.1612 68.9726 29.4003C69.5911 29.6395 70.2513 29.7512 70.9138 29.729C71.5999 29.7559 72.2844 29.644 72.9264 29.3998C73.5685 29.1556 74.1549 28.7842 74.6507 28.3078C75.1466 27.8313 75.5417 27.2595 75.8125 26.6266C76.0832 25.9936 76.2241 25.3124 76.2267 24.6236C76.2332 23.9662 76.108 23.3142 75.8585 22.7062C75.609 22.0983 75.2403 21.5468 74.7743 21.0845C74.3083 20.6222 73.7544 20.2585 73.1456 20.015C72.5368 19.7716 71.8854 19.6533 71.2302 19.6672H71.2289ZM73.528 28.0314C73.2789 28.3623 72.9568 28.631 72.5869 28.8162C72.217 29.0015 71.8094 29.0983 71.396 29.0993C68.8644 29.0993 67.8393 25.6745 67.8393 23.5983C67.8393 22.6921 67.9865 21.7689 68.8021 21.0328C69.3247 20.5775 69.9921 20.324 70.6843 20.3181C73.2782 20.3181 74.1562 23.845 74.1562 25.6957C74.2053 26.5219 73.9853 27.3416 73.5293 28.0314H73.528ZM59.8947 19.6672C56.7138 19.6672 54.4766 22.0199 54.4766 24.7725C54.4757 25.4375 54.6084 26.0958 54.8667 26.7083C55.1249 27.3208 55.5035 27.8748 55.9798 28.3373C56.4561 28.7999 57.0204 29.1615 57.639 29.4006C58.2576 29.6397 58.9179 29.7513 59.5804 29.729C60.2665 29.7559 60.951 29.6439 61.5929 29.3997C62.2349 29.1555 62.8214 28.7841 63.3172 28.3076C63.813 27.8312 64.208 27.2594 64.4787 26.6265C64.7495 25.9935 64.8904 25.3124 64.893 24.6236C64.8995 23.9661 64.7742 23.3139 64.5246 22.7058C64.275 22.0977 63.9061 21.5462 63.4399 21.0838C62.9737 20.6215 62.4197 20.2579 61.8106 20.0146C61.2016 19.7712 60.5501 19.6531 59.8947 19.6672ZM62.1951 28.0314C61.9458 28.3623 61.6235 28.6309 61.2535 28.8162C60.8835 29.0014 60.4758 29.0983 60.0622 29.0993C57.5302 29.0993 56.506 25.6745 56.506 23.5983C56.506 22.6921 56.6523 21.7689 57.4679 21.0328C57.9905 20.5775 58.6579 20.324 59.3501 20.3181C61.944 20.3181 62.8228 23.845 62.8228 25.6957C62.8706 26.5221 62.6497 27.3417 62.1934 28.0314H62.1951ZM47.5375 25.8531L50.7125 25.683V29.0823C49.8719 29.4552 48.9594 29.6368 48.0405 29.6141C43.4571 29.6141 40.5968 25.8744 40.5968 21.905C40.5968 18.2079 43.0991 15.6723 46.4225 15.6723C47.2696 15.6656 48.1084 15.8388 48.884 16.1805C49.6595 16.5222 50.3542 17.0246 50.9224 17.6548L50.3965 18.5015L51.1319 18.3313L52.8781 16.6635C52.0419 16.0577 51.1005 15.6134 50.1022 15.3532C49.0543 15.0626 47.9724 14.9138 46.8852 14.9107C41.5222 14.9107 38.3897 18.7142 38.3897 22.8112C38.3897 26.168 40.5951 30.4564 46.4013 30.4564C47.5653 30.429 48.7253 30.3095 49.8706 30.0991L52.8781 29.4014V26.8231C52.8781 26.6104 52.8975 25.9978 52.9205 25.8063C52.9307 25.7386 52.9548 25.6738 52.9913 25.6159C53.0278 25.5581 53.0759 25.5085 53.1325 25.4703L53.6788 24.9427H49.2175L47.5375 25.8531ZM89.9127 27.7804V15.8211C89.9169 15.7786 89.9199 15.7318 89.9241 15.685C90.0089 14.949 90.221 14.8214 90.8716 14.4385H87.8633L86.2856 15.2H87.8934V15.2127V15.2043V28.2441C87.8934 28.6653 87.8086 28.7291 87.326 29.363H91.0484L91.8263 28.8993C91.4696 28.8568 91.1112 28.8355 90.7533 28.7929C90.056 28.7291 89.9109 28.6015 89.9109 27.7804H89.9127ZM93.5665 24.4577L95.1747 24.33L100.081 22.3347C99.872 21.4831 99.3508 20.7417 98.6211 20.2586C97.9719 19.8665 97.2268 19.6633 96.4691 19.6714C95.8353 19.6652 95.2066 19.7867 94.6204 20.0286C94.0342 20.2705 93.5024 20.628 93.0564 21.0799C92.6105 21.5318 92.2595 22.0688 92.0242 22.6593C91.7889 23.2497 91.6742 23.8815 91.6868 24.5173C91.6698 25.3714 91.8538 26.2174 92.2237 26.9869C92.5936 27.7564 93.1391 28.4276 93.8158 28.9461C94.6254 29.5206 95.6028 29.808 96.5934 29.763C97.2901 29.7771 97.9816 29.6407 98.6211 29.363C98.8501 29.2609 99.0796 29.112 99.3086 28.9886L100.416 27.9378C99.641 28.3912 98.7651 28.6427 97.8683 28.6695C95.8822 28.6695 94.086 27.121 93.5647 24.4577H93.5665ZM93.4816 23.2792C93.4816 21.0158 95.0471 20.3649 95.8834 20.3649C97.012 20.3649 97.951 21.3307 97.951 22.1688C97.951 22.4624 97.7419 22.59 97.3462 22.7346L93.5452 24.3939C93.5223 24.0152 93.4804 23.6366 93.4804 23.2792H93.4816ZM100.701 19.8161H101.157V21.203H101.324V19.8161H101.78V19.6714H100.699V19.8161H100.701ZM102.708 20.9094H102.702L102.315 19.6714H102.052V21.203H102.205V19.8033H102.21L102.638 21.203H102.769L103.193 19.8033H103.2V21.203H103.351V19.6714H103.087L102.708 20.9094Z" fill="#222222"/>
</svg>
