<svg width="45" height="40" viewBox="0 0 45 40" fill="none" xmlns="http://www.w3.org/2000/svg">
<path d="M19.1169 28.6594C20.284 27.9665 21.413 27.2097 22.4952 26.3888C23.5775 27.2096 24.7043 27.9665 25.8714 28.6594C26.8815 29.2585 28.1823 28.9217 28.7787 27.9089C29.375 26.8941 29.0397 25.5872 28.0317 24.9881C27.2699 24.5382 26.5293 24.0564 25.8099 23.5404C26.1261 23.2313 26.4317 22.9243 26.7267 22.6151V22.6173C28.3479 20.95 28.7978 18.4598 27.8641 16.3259C26.9516 14.1597 24.8359 12.7526 22.4953 12.7526C20.1525 12.7526 18.0369 14.1597 17.1244 16.328C16.1928 18.46 16.6448 20.9503 18.264 22.6172C18.5589 22.9242 18.8645 23.2334 19.1807 23.5425C18.4613 24.0563 17.7207 24.5382 16.9589 24.9901L16.961 24.988C16.4751 25.2737 16.1207 25.7427 15.9806 26.2907C15.8385 26.8407 15.9191 27.4228 16.2056 27.9088C16.492 28.3971 16.961 28.751 17.5064 28.8917C18.0539 29.0324 18.6331 28.9494 19.1169 28.6594ZM21.0289 17.9972C21.2771 17.4024 21.8543 17.0165 22.4952 17.0165C23.1361 17.0165 23.7133 17.4024 23.9615 17.9972C24.2183 18.56 24.0995 19.2231 23.6666 19.6623C23.3058 20.0397 22.9259 20.4171 22.5291 20.7923L22.4952 20.8243L22.4633 20.7944C22.0644 20.4171 21.6845 20.0418 21.3259 19.6645L21.3238 19.6623C20.8909 19.2231 20.7742 18.5601 21.0289 17.9972Z" fill="#AE9B31"/>
<path d="M2.44194 22.3233C9.66767 35.3689 17.761 40 22.4954 40C27.2318 40 35.3252 35.3714 42.5509 22.3233C46.6019 15.0107 45.5728 7.58017 39.8687 2.93653C36.2802 0.160656 31.5798 -0.711364 27.2425 0.595548C25.3857 1.16056 23.7284 2.24146 22.4594 3.71467C21.0652 2.20309 19.2593 1.13491 17.2646 0.644561C12.6428 -0.568583 7.72409 0.616844 4.15224 3.80637C-0.69879 8.57571 -1.33939 15.4986 2.44194 22.3233ZM7.12109 6.85317C8.95031 5.25841 11.3037 4.4056 13.7248 4.45892C14.5503 4.45466 15.3758 4.55912 16.1758 4.76593C18.2108 5.19234 19.8533 6.70182 20.4538 8.70162C20.7127 9.6184 21.5467 10.2516 22.4952 10.2516C23.4438 10.2516 24.2777 9.61835 24.5367 8.70162C25.0523 6.73588 26.5696 5.19657 28.5219 4.66147C31.5012 3.8044 34.71 4.3907 37.1948 6.24985C41.2522 9.55236 41.8676 14.7867 38.8394 20.2485C32.0575 32.4989 25.1816 35.7355 22.4952 35.7355C19.8089 35.7355 12.933 32.4991 6.15112 20.2506C4.80783 17.8265 2.21698 11.6737 7.12109 6.85317Z" fill="#AE9B31"/>
</svg>
