<svg width="40" height="40" viewBox="0 0 40 40" fill="none" xmlns="http://www.w3.org/2000/svg">
<path d="M25.9998 33.9999H22.0006V30.0004H25.9998V33.9999ZM16.0008 3.99942V12.0002C16.0008 14.2071 14.2064 15.9996 12.0015 15.9996H4.00112C1.79429 15.9996 0.0018754 14.2052 0.0018754 12.0002L0 3.99942C0 1.79249 1.79433 1.46867e-06 3.99924 1.46867e-06H11.9996C14.2046 -0.00187392 16.0008 1.79254 16.0008 3.99942ZM11.9996 3.99942H4.00116V12.0002H12.0016L11.9996 3.99942ZM10.0009 5.99822H5.99982V9.99764H9.99907L10.0009 5.99822ZM16.0008 27.9998V36.0006C16.0008 38.2075 14.2064 40 12.0015 40H4.00112C1.79429 40 0.0018754 38.2056 0.0018754 36.0006V27.9998C0.0018754 25.7929 1.79621 24.0004 4.00112 24.0004H12.0015C14.2046 23.9985 16.0008 25.7929 16.0008 27.9998ZM11.9996 27.9998H4.00116V36.0006H12.0016L11.9996 27.9998ZM10.0009 29.9986H5.99982V33.998H9.99907L10.0009 29.9986ZM35.9989 27.9998H39.9981V24.0004H35.9989V27.9998ZM35.9989 40H39.9981V36.0006H35.9989V40ZM34.0002 5.99822H30.0009V9.99764H34.0002V5.99822ZM40 3.99942V12.0002C40 14.2071 38.2057 15.9996 36.0008 15.9996H28.0004C25.7954 15.9996 24.0011 14.2052 24.0011 12.0002L23.9992 3.99942C23.9992 1.79249 25.7936 1.46867e-06 27.9985 1.46867e-06H35.9989C38.2038 -0.00187392 40 1.79254 40 3.99942ZM35.9989 3.99942H27.9985V12.0002H35.9989V3.99942ZM29.9991 33.9999H33.9983V30.0004H29.9991V33.9999ZM23.9992 40H27.9985V36.0005H23.9992V40ZM29.9991 23.9984H25.9998V27.9979H29.9991V23.9984Z" fill="#AE9B31"/>
</svg>
