<svg width="40" height="40" viewBox="0 0 40 40" fill="none" xmlns="http://www.w3.org/2000/svg">
<path d="M38.517 31.7561C39.4467 31.3813 40.0225 30.5049 39.9993 29.5118C39.9762 28.5187 39.3409 27.6769 38.3879 27.3612L26.1998 23.328C25.3528 23.0468 24.423 23.2573 23.7877 23.8887C23.1524 24.52 22.9406 25.4326 23.2235 26.2859L27.2819 38.3985C27.5995 39.3456 28.4466 39.9655 29.4459 40H29.517C30.4815 40 31.3402 39.4278 31.6942 38.5268L33.165 34.8668L37.7295 39.403C37.9644 39.6365 38.2589 39.7417 38.565 39.7417C38.871 39.7417 39.1655 39.625 39.4005 39.403C39.8587 38.9476 39.8587 38.211 39.4005 37.7539L34.836 33.2177L38.5188 31.756L38.517 31.7561ZM37.6467 29.5924L32.3064 31.7085C32.1773 31.7545 32.0599 31.8482 31.9424 31.9419C31.9192 31.9649 31.9076 31.9765 31.8828 32.0011C31.777 32.1063 31.6942 32.2231 31.6479 32.3628L29.5187 37.6702L25.4604 25.5575L37.6603 29.5907H37.6487L37.6467 29.5924ZM25.4587 37.8364C25.5993 38.4678 25.2122 39.0877 24.5769 39.2389C23.0598 39.5891 21.5178 39.765 20.0006 39.765C8.97724 39.765 2.2862e-07 30.8438 2.2862e-07 19.8882C-0.0016541 8.93307 8.97512 0 19.9989 0C31.0226 0 39.9995 8.92128 39.9995 19.8768C39.9995 21.3846 39.8224 22.917 39.47 24.4248C39.3294 25.0562 38.6941 25.4541 38.0588 25.3012C37.4235 25.1614 37.0231 24.53 37.177 23.8987C37.4831 22.5652 37.6353 21.2088 37.6353 19.8655C37.6353 10.1958 29.7173 2.32681 19.9874 2.32681C10.2576 2.32681 2.35104 10.2076 2.35104 19.8768C2.35104 29.5461 10.269 37.4155 19.9989 37.4155C21.3406 37.4155 22.7055 37.2642 24.0572 36.9601C24.6925 36.8203 25.3162 37.2051 25.4684 37.8364H25.4587ZM14.1405 21.0457C14.3407 24.7402 15.4575 28.4349 17.5057 32.1768C17.8117 32.7375 17.6115 33.451 17.0358 33.7667C16.8588 33.8604 16.6586 33.9065 16.4716 33.9065C16.0597 33.9065 15.6477 33.6845 15.436 33.2981C13.2009 29.2287 12.0014 25.1362 11.8128 21.0457H7.05943C6.41257 21.0457 5.88315 20.5196 5.88315 19.8767C5.88315 19.2339 6.41257 18.7077 7.05943 18.7077H11.8128C12.0014 14.6153 13.2124 10.523 15.436 6.45532C15.742 5.89467 16.4601 5.68421 17.0358 5.98836C17.5999 6.29254 17.8117 7.00613 17.5057 7.57828C15.4475 11.3205 14.3291 15.015 14.1405 18.7094H25.8475C25.6473 15.0149 24.5305 11.2726 22.5055 7.57828C22.1879 7.01762 22.3996 6.30405 22.9754 5.98836C23.5511 5.67268 24.2576 5.88313 24.5752 6.45532C26.7988 10.5001 28.0098 14.6173 28.21 18.7077H32.9515C33.5983 18.7077 34.1277 19.2339 34.1277 19.8767C34.1277 20.5196 33.5983 21.0457 32.9515 21.0457L14.1405 21.0457Z" fill="#AE9B31"/>
</svg>
